<mxfile host="Electron" modified="2024-01-14T19:52:59.302Z" agent="Mozilla/5.0 (Windows NT 10.0; Win64; x64) AppleWebKit/537.36 (KHTML, like Gecko) draw.io/22.1.18 Chrome/120.0.6099.199 Electron/28.1.2 Safari/537.36" etag="n00GGecoJeJGoYFrxfuf" version="22.1.18" type="device">
  <diagram name="Страница — 1" id="K_zEX6VsGvgMb8bgnzBZ">
    <mxGraphModel dx="1091" dy="638" grid="1" gridSize="10" guides="1" tooltips="1" connect="1" arrows="1" fold="1" page="1" pageScale="1" pageWidth="1600" pageHeight="900" math="0" shadow="0">
      <root>
        <mxCell id="0" />
        <mxCell id="1" parent="0" />
        <mxCell id="wsklfWzPOFL0oYU8OBKS-3" value="" style="endArrow=none;html=1;rounded=0;entryX=0;entryY=0;entryDx=0;entryDy=0;exitX=0;exitY=1;exitDx=0;exitDy=0;" parent="1" edge="1">
          <mxGeometry width="50" height="50" relative="1" as="geometry">
            <mxPoint x="400.0000000000002" y="758.9999999999998" as="sourcePoint" />
            <mxPoint x="400.0000000000002" y="279" as="targetPoint" />
          </mxGeometry>
        </mxCell>
        <mxCell id="wsklfWzPOFL0oYU8OBKS-4" value="" style="endArrow=none;html=1;rounded=0;" parent="1" edge="1">
          <mxGeometry width="50" height="50" relative="1" as="geometry">
            <mxPoint x="600" y="279" as="sourcePoint" />
            <mxPoint x="320" y="279" as="targetPoint" />
          </mxGeometry>
        </mxCell>
        <mxCell id="wsklfWzPOFL0oYU8OBKS-5" value="" style="endArrow=none;html=1;rounded=0;" parent="1" edge="1">
          <mxGeometry width="50" height="50" relative="1" as="geometry">
            <mxPoint x="1180" y="759" as="sourcePoint" />
            <mxPoint x="752" y="759" as="targetPoint" />
          </mxGeometry>
        </mxCell>
        <mxCell id="wsklfWzPOFL0oYU8OBKS-7" value="" style="endArrow=none;html=1;rounded=0;entryX=0;entryY=0;entryDx=0;entryDy=0;" parent="1" edge="1">
          <mxGeometry width="50" height="50" relative="1" as="geometry">
            <mxPoint x="600" y="289" as="sourcePoint" />
            <mxPoint x="410.0000000000002" y="289" as="targetPoint" />
          </mxGeometry>
        </mxCell>
        <mxCell id="wsklfWzPOFL0oYU8OBKS-8" value="" style="endArrow=none;html=1;rounded=0;entryX=0;entryY=0;entryDx=0;entryDy=0;" parent="1" edge="1">
          <mxGeometry width="50" height="50" relative="1" as="geometry">
            <mxPoint x="410" y="749" as="sourcePoint" />
            <mxPoint x="410.0000000000002" y="289" as="targetPoint" />
          </mxGeometry>
        </mxCell>
        <mxCell id="wsklfWzPOFL0oYU8OBKS-9" value="" style="endArrow=none;html=1;rounded=0;" parent="1" edge="1">
          <mxGeometry width="50" height="50" relative="1" as="geometry">
            <mxPoint x="870" y="749" as="sourcePoint" />
            <mxPoint x="760" y="749" as="targetPoint" />
          </mxGeometry>
        </mxCell>
        <mxCell id="wsklfWzPOFL0oYU8OBKS-10" value="" style="endArrow=none;html=1;rounded=0;entryX=0;entryY=0;entryDx=0;entryDy=0;" parent="1" edge="1">
          <mxGeometry width="50" height="50" relative="1" as="geometry">
            <mxPoint x="870" y="749" as="sourcePoint" />
            <mxPoint x="870.0000000000002" y="289" as="targetPoint" />
          </mxGeometry>
        </mxCell>
        <mxCell id="wsklfWzPOFL0oYU8OBKS-12" value="" style="endArrow=none;html=1;rounded=0;" parent="1" edge="1">
          <mxGeometry width="50" height="50" relative="1" as="geometry">
            <mxPoint x="1080" y="279" as="sourcePoint" />
            <mxPoint x="680" y="279" as="targetPoint" />
          </mxGeometry>
        </mxCell>
        <mxCell id="wsklfWzPOFL0oYU8OBKS-13" value="" style="endArrow=none;html=1;rounded=0;" parent="1" edge="1">
          <mxGeometry width="50" height="50" relative="1" as="geometry">
            <mxPoint x="870" y="289" as="sourcePoint" />
            <mxPoint x="680" y="289" as="targetPoint" />
          </mxGeometry>
        </mxCell>
        <mxCell id="wsklfWzPOFL0oYU8OBKS-14" value="" style="verticalLabelPosition=bottom;verticalAlign=top;html=1;shape=mxgraph.basic.arc;startAngle=0.987294663166942;endAngle=0.5205747559124867;" parent="1" vertex="1">
          <mxGeometry x="595" y="279" width="10" height="10" as="geometry" />
        </mxCell>
        <mxCell id="wsklfWzPOFL0oYU8OBKS-15" value="" style="verticalLabelPosition=bottom;verticalAlign=top;html=1;shape=mxgraph.basic.arc;startAngle=0.987294663166942;endAngle=0.5205747559124867;flipH=1;" parent="1" vertex="1">
          <mxGeometry x="675" y="279" width="10" height="10" as="geometry" />
        </mxCell>
        <mxCell id="wsklfWzPOFL0oYU8OBKS-16" value="" style="endArrow=none;html=1;rounded=0;entryX=1.016;entryY=0.494;entryDx=0;entryDy=0;entryPerimeter=0;" parent="1" target="wsklfWzPOFL0oYU8OBKS-15" edge="1">
          <mxGeometry width="50" height="50" relative="1" as="geometry">
            <mxPoint x="605" y="284" as="sourcePoint" />
            <mxPoint x="635" y="284" as="targetPoint" />
          </mxGeometry>
        </mxCell>
        <mxCell id="wsklfWzPOFL0oYU8OBKS-18" value="" style="endArrow=none;html=1;rounded=0;" parent="1" edge="1">
          <mxGeometry width="50" height="50" relative="1" as="geometry">
            <mxPoint x="700" y="749" as="sourcePoint" />
            <mxPoint x="410" y="749" as="targetPoint" />
          </mxGeometry>
        </mxCell>
        <mxCell id="wsklfWzPOFL0oYU8OBKS-19" value="" style="endArrow=none;html=1;rounded=0;" parent="1" edge="1">
          <mxGeometry width="50" height="50" relative="1" as="geometry">
            <mxPoint x="700" y="759" as="sourcePoint" />
            <mxPoint x="320" y="759" as="targetPoint" />
          </mxGeometry>
        </mxCell>
        <mxCell id="wsklfWzPOFL0oYU8OBKS-20" value="" style="endArrow=none;html=1;rounded=0;" parent="1" edge="1">
          <mxGeometry width="50" height="50" relative="1" as="geometry">
            <mxPoint x="760" y="749" as="sourcePoint" />
            <mxPoint x="720" y="799" as="targetPoint" />
          </mxGeometry>
        </mxCell>
        <mxCell id="wsklfWzPOFL0oYU8OBKS-21" value="&lt;font style=&quot;font-size: 18px;&quot;&gt;дверь&lt;/font&gt;" style="text;html=1;strokeColor=none;fillColor=none;align=center;verticalAlign=middle;whiteSpace=wrap;rounded=0;" parent="1" vertex="1">
          <mxGeometry x="750" y="779" width="60" height="30" as="geometry" />
        </mxCell>
        <mxCell id="wsklfWzPOFL0oYU8OBKS-26" value="&lt;font style=&quot;font-size: 18px;&quot;&gt;Б&lt;/font&gt;" style="text;html=1;strokeColor=none;fillColor=none;align=center;verticalAlign=middle;whiteSpace=wrap;rounded=0;" parent="1" vertex="1">
          <mxGeometry x="1267.5" y="489" width="30" height="30" as="geometry" />
        </mxCell>
        <mxCell id="wsklfWzPOFL0oYU8OBKS-27" value="" style="image;aspect=fixed;perimeter=ellipsePerimeter;html=1;align=center;shadow=0;dashed=0;spacingTop=3;image=img/lib/active_directory/laptop_client.svg;" parent="1" vertex="1">
          <mxGeometry x="1256" y="428" width="54" height="60" as="geometry" />
        </mxCell>
        <mxCell id="wsklfWzPOFL0oYU8OBKS-30" value="" style="image;aspect=fixed;perimeter=ellipsePerimeter;html=1;align=center;shadow=0;dashed=0;spacingTop=3;image=img/lib/active_directory/vista_terminal.svg;" parent="1" vertex="1">
          <mxGeometry x="1076" y="637" width="45.5" height="70" as="geometry" />
        </mxCell>
        <mxCell id="wsklfWzPOFL0oYU8OBKS-31" value="&lt;font style=&quot;font-size: 18px;&quot;&gt;В&lt;/font&gt;" style="text;html=1;strokeColor=none;fillColor=none;align=center;verticalAlign=middle;whiteSpace=wrap;rounded=0;" parent="1" vertex="1">
          <mxGeometry x="1085" y="709" width="30" height="30" as="geometry" />
        </mxCell>
        <mxCell id="wsklfWzPOFL0oYU8OBKS-32" value="" style="image;aspect=fixed;perimeter=ellipsePerimeter;html=1;align=center;shadow=0;dashed=0;spacingTop=3;image=img/lib/active_directory/phone.svg;" parent="1" vertex="1">
          <mxGeometry x="435" y="389" width="60.13" height="47.5" as="geometry" />
        </mxCell>
        <mxCell id="wsklfWzPOFL0oYU8OBKS-33" value="&lt;span style=&quot;font-size: 18px;&quot;&gt;Г&lt;/span&gt;" style="text;html=1;strokeColor=none;fillColor=none;align=center;verticalAlign=middle;whiteSpace=wrap;rounded=0;" parent="1" vertex="1">
          <mxGeometry x="450" y="437" width="30" height="30" as="geometry" />
        </mxCell>
        <mxCell id="wsklfWzPOFL0oYU8OBKS-34" value="" style="endArrow=none;html=1;rounded=0;" parent="1" edge="1">
          <mxGeometry width="50" height="50" relative="1" as="geometry">
            <mxPoint x="1460" y="839" as="sourcePoint" />
            <mxPoint x="280" y="839" as="targetPoint" />
          </mxGeometry>
        </mxCell>
        <mxCell id="42jozxJt0dKtSEOgUU7_-1" value="&lt;font style=&quot;font-size: 18px;&quot;&gt;коридор&lt;/font&gt;" style="text;html=1;strokeColor=none;fillColor=none;align=center;verticalAlign=middle;whiteSpace=wrap;rounded=0;" parent="1" vertex="1">
          <mxGeometry x="450" y="783" width="100" height="30" as="geometry" />
        </mxCell>
        <mxCell id="42jozxJt0dKtSEOgUU7_-2" value="" style="image;aspect=fixed;perimeter=ellipsePerimeter;html=1;align=center;shadow=0;dashed=0;spacingTop=3;image=img/lib/active_directory/vista_client.svg;" parent="1" vertex="1">
          <mxGeometry x="780" y="441" width="58" height="76.32" as="geometry" />
        </mxCell>
        <mxCell id="42jozxJt0dKtSEOgUU7_-3" value="&lt;font style=&quot;font-size: 18px;&quot;&gt;А&lt;/font&gt;" style="text;html=1;strokeColor=none;fillColor=none;align=center;verticalAlign=middle;whiteSpace=wrap;rounded=0;" parent="1" vertex="1">
          <mxGeometry x="794" y="517.3199999999999" width="30" height="30" as="geometry" />
        </mxCell>
        <mxCell id="42jozxJt0dKtSEOgUU7_-4" value="" style="endArrow=none;html=1;rounded=0;entryX=0;entryY=0;entryDx=0;entryDy=0;" parent="1" edge="1">
          <mxGeometry width="50" height="50" relative="1" as="geometry">
            <mxPoint x="890" y="749" as="sourcePoint" />
            <mxPoint x="890.0000000000002" y="289" as="targetPoint" />
          </mxGeometry>
        </mxCell>
        <mxCell id="42jozxJt0dKtSEOgUU7_-5" value="" style="endArrow=none;html=1;rounded=0;" parent="1" edge="1">
          <mxGeometry width="50" height="50" relative="1" as="geometry">
            <mxPoint x="1080" y="289" as="sourcePoint" />
            <mxPoint x="890" y="289" as="targetPoint" />
          </mxGeometry>
        </mxCell>
        <mxCell id="42jozxJt0dKtSEOgUU7_-6" value="" style="verticalLabelPosition=bottom;verticalAlign=top;html=1;shape=mxgraph.basic.arc;startAngle=0.987294663166942;endAngle=0.5205747559124867;" parent="1" vertex="1">
          <mxGeometry x="1075" y="279" width="10" height="10" as="geometry" />
        </mxCell>
        <mxCell id="42jozxJt0dKtSEOgUU7_-7" value="" style="verticalLabelPosition=bottom;verticalAlign=top;html=1;shape=mxgraph.basic.arc;startAngle=0.987294663166942;endAngle=0.5205747559124867;flipH=1;" parent="1" vertex="1">
          <mxGeometry x="1155" y="279" width="10" height="10" as="geometry" />
        </mxCell>
        <mxCell id="42jozxJt0dKtSEOgUU7_-8" value="" style="endArrow=none;html=1;rounded=0;entryX=1.016;entryY=0.494;entryDx=0;entryDy=0;entryPerimeter=0;" parent="1" target="42jozxJt0dKtSEOgUU7_-7" edge="1">
          <mxGeometry width="50" height="50" relative="1" as="geometry">
            <mxPoint x="1085" y="284" as="sourcePoint" />
            <mxPoint x="1115" y="284" as="targetPoint" />
          </mxGeometry>
        </mxCell>
        <mxCell id="42jozxJt0dKtSEOgUU7_-9" value="&lt;font style=&quot;font-size: 18px;&quot;&gt;окно&lt;/font&gt;" style="text;html=1;strokeColor=none;fillColor=none;align=center;verticalAlign=middle;whiteSpace=wrap;rounded=0;" parent="1" vertex="1">
          <mxGeometry x="1091" y="253" width="60" height="30" as="geometry" />
        </mxCell>
        <mxCell id="42jozxJt0dKtSEOgUU7_-10" value="" style="endArrow=none;html=1;rounded=0;entryX=0.487;entryY=1.004;entryDx=0;entryDy=0;entryPerimeter=0;" parent="1" target="42jozxJt0dKtSEOgUU7_-7" edge="1">
          <mxGeometry width="50" height="50" relative="1" as="geometry">
            <mxPoint x="1330" y="289" as="sourcePoint" />
            <mxPoint x="1160" y="299" as="targetPoint" />
          </mxGeometry>
        </mxCell>
        <mxCell id="42jozxJt0dKtSEOgUU7_-11" value="" style="endArrow=none;html=1;rounded=0;" parent="1" edge="1">
          <mxGeometry width="50" height="50" relative="1" as="geometry">
            <mxPoint x="1420" y="279" as="sourcePoint" />
            <mxPoint x="1160" y="279" as="targetPoint" />
          </mxGeometry>
        </mxCell>
        <mxCell id="42jozxJt0dKtSEOgUU7_-12" value="" style="endArrow=none;html=1;rounded=0;" parent="1" edge="1">
          <mxGeometry width="50" height="50" relative="1" as="geometry">
            <mxPoint x="1180" y="749" as="sourcePoint" />
            <mxPoint x="890" y="749" as="targetPoint" />
          </mxGeometry>
        </mxCell>
        <mxCell id="42jozxJt0dKtSEOgUU7_-13" value="" style="endArrow=none;html=1;rounded=0;" parent="1" edge="1">
          <mxGeometry width="50" height="50" relative="1" as="geometry">
            <mxPoint x="1330" y="749" as="sourcePoint" />
            <mxPoint x="1230" y="749" as="targetPoint" />
          </mxGeometry>
        </mxCell>
        <mxCell id="42jozxJt0dKtSEOgUU7_-14" value="" style="endArrow=none;html=1;rounded=0;" parent="1" edge="1">
          <mxGeometry width="50" height="50" relative="1" as="geometry">
            <mxPoint x="1230" y="749" as="sourcePoint" />
            <mxPoint x="1190" y="799" as="targetPoint" />
          </mxGeometry>
        </mxCell>
        <mxCell id="42jozxJt0dKtSEOgUU7_-15" value="&lt;font style=&quot;font-size: 18px;&quot;&gt;дверь&lt;/font&gt;" style="text;html=1;strokeColor=none;fillColor=none;align=center;verticalAlign=middle;whiteSpace=wrap;rounded=0;" parent="1" vertex="1">
          <mxGeometry x="1220" y="779" width="60" height="30" as="geometry" />
        </mxCell>
        <mxCell id="42jozxJt0dKtSEOgUU7_-16" value="" style="endArrow=none;html=1;rounded=0;" parent="1" edge="1">
          <mxGeometry width="50" height="50" relative="1" as="geometry">
            <mxPoint x="1420" y="759" as="sourcePoint" />
            <mxPoint x="1222" y="759" as="targetPoint" />
          </mxGeometry>
        </mxCell>
        <mxCell id="42jozxJt0dKtSEOgUU7_-17" value="" style="endArrow=none;html=1;rounded=0;entryX=0;entryY=0;entryDx=0;entryDy=0;" parent="1" edge="1">
          <mxGeometry width="50" height="50" relative="1" as="geometry">
            <mxPoint x="1340" y="759" as="sourcePoint" />
            <mxPoint x="1340.0000000000002" y="279" as="targetPoint" />
          </mxGeometry>
        </mxCell>
        <mxCell id="42jozxJt0dKtSEOgUU7_-18" value="" style="endArrow=none;html=1;rounded=0;entryX=0;entryY=0;entryDx=0;entryDy=0;" parent="1" edge="1">
          <mxGeometry width="50" height="50" relative="1" as="geometry">
            <mxPoint x="1330" y="749" as="sourcePoint" />
            <mxPoint x="1330.0000000000002" y="289" as="targetPoint" />
          </mxGeometry>
        </mxCell>
        <mxCell id="42jozxJt0dKtSEOgUU7_-21" value="&lt;font style=&quot;font-size: 18px;&quot;&gt;ВП 2&lt;/font&gt;" style="text;html=1;strokeColor=none;fillColor=none;align=center;verticalAlign=middle;whiteSpace=wrap;rounded=0;" parent="1" vertex="1">
          <mxGeometry x="890" y="539" width="440" height="30" as="geometry" />
        </mxCell>
        <mxCell id="6W9LB1AUJJwDXQty4vp6-1" value="" style="image;aspect=fixed;perimeter=ellipsePerimeter;html=1;align=center;shadow=0;dashed=0;spacingTop=3;image=img/lib/active_directory/documents.svg;" parent="1" vertex="1">
          <mxGeometry x="564.8" y="607" width="46.2" height="70" as="geometry" />
        </mxCell>
        <mxCell id="6W9LB1AUJJwDXQty4vp6-2" value="&lt;font style=&quot;font-size: 18px;&quot;&gt;Д&lt;/font&gt;" style="text;html=1;strokeColor=none;fillColor=none;align=center;verticalAlign=middle;whiteSpace=wrap;rounded=0;" parent="1" vertex="1">
          <mxGeometry x="573" y="677" width="30" height="30" as="geometry" />
        </mxCell>
        <mxCell id="0JfsgBpQ2G4fl9HlAXA1-1" value="" style="image;html=1;image=img/lib/clip_art/people/Suit_Man_128x128.png" vertex="1" parent="1">
          <mxGeometry x="519.5" y="409" width="69" height="71" as="geometry" />
        </mxCell>
        <mxCell id="0JfsgBpQ2G4fl9HlAXA1-2" value="&lt;span style=&quot;font-size: 18px;&quot;&gt;источник информации&lt;/span&gt;" style="text;html=1;strokeColor=none;fillColor=none;align=center;verticalAlign=middle;whiteSpace=wrap;rounded=0;" vertex="1" parent="1">
          <mxGeometry x="539" y="486" width="30" height="30" as="geometry" />
        </mxCell>
        <mxCell id="0JfsgBpQ2G4fl9HlAXA1-3" value="" style="endArrow=block;html=1;rounded=0;endFill=0;exitX=1;exitY=0.5;exitDx=0;exitDy=0;dashed=1;dashPattern=8 8;" edge="1" parent="1" source="0JfsgBpQ2G4fl9HlAXA1-1">
          <mxGeometry width="50" height="50" relative="1" as="geometry">
            <mxPoint x="660" y="429" as="sourcePoint" />
            <mxPoint x="640" y="289" as="targetPoint" />
            <Array as="points">
              <mxPoint x="640" y="445" />
            </Array>
          </mxGeometry>
        </mxCell>
        <mxCell id="0JfsgBpQ2G4fl9HlAXA1-4" value="&lt;span style=&quot;font-size: 18px;&quot;&gt;звук&lt;/span&gt;" style="text;html=1;strokeColor=none;fillColor=none;align=center;verticalAlign=middle;whiteSpace=wrap;rounded=0;" vertex="1" parent="1">
          <mxGeometry x="648" y="349" width="30" height="30" as="geometry" />
        </mxCell>
        <mxCell id="0JfsgBpQ2G4fl9HlAXA1-5" value="&lt;span style=&quot;font-size: 18px;&quot;&gt;шум чайника&lt;/span&gt;" style="text;html=1;strokeColor=none;fillColor=none;align=center;verticalAlign=middle;whiteSpace=wrap;rounded=0;" vertex="1" parent="1">
          <mxGeometry x="690" y="479" width="30" height="30" as="geometry" />
        </mxCell>
        <mxCell id="0JfsgBpQ2G4fl9HlAXA1-6" value="" style="curved=1;endArrow=block;html=1;rounded=0;endFill=0;exitX=0.25;exitY=0;exitDx=0;exitDy=0;" edge="1" parent="1">
          <mxGeometry width="50" height="50" relative="1" as="geometry">
            <mxPoint x="695.5" y="473" as="sourcePoint" />
            <mxPoint x="648" y="423" as="targetPoint" />
            <Array as="points">
              <mxPoint x="698" y="423" />
            </Array>
          </mxGeometry>
        </mxCell>
        <mxCell id="0JfsgBpQ2G4fl9HlAXA1-7" value="&lt;span style=&quot;font-size: 18px;&quot;&gt;шум кондиционера&lt;br&gt;&lt;/span&gt;" style="text;html=1;strokeColor=none;fillColor=none;align=center;verticalAlign=middle;whiteSpace=wrap;rounded=0;" vertex="1" parent="1">
          <mxGeometry x="770" y="309" width="50" height="30" as="geometry" />
        </mxCell>
        <mxCell id="0JfsgBpQ2G4fl9HlAXA1-8" value="" style="curved=1;endArrow=block;html=1;rounded=0;endFill=0;" edge="1" parent="1">
          <mxGeometry width="50" height="50" relative="1" as="geometry">
            <mxPoint x="760" y="349" as="sourcePoint" />
            <mxPoint x="648" y="423" as="targetPoint" />
            <Array as="points">
              <mxPoint x="760" y="423" />
            </Array>
          </mxGeometry>
        </mxCell>
        <mxCell id="0JfsgBpQ2G4fl9HlAXA1-9" value="" style="image;html=1;image=img/lib/clip_art/people/Security_Man_128x128.png" vertex="1" parent="1">
          <mxGeometry x="504" y="80" width="69" height="70" as="geometry" />
        </mxCell>
        <mxCell id="0JfsgBpQ2G4fl9HlAXA1-10" value="" style="endArrow=none;html=1;rounded=0;strokeWidth=3;" edge="1" parent="1">
          <mxGeometry width="50" height="50" relative="1" as="geometry">
            <mxPoint x="990" y="200" as="sourcePoint" />
            <mxPoint x="320.06" y="199" as="targetPoint" />
          </mxGeometry>
        </mxCell>
        <mxCell id="0JfsgBpQ2G4fl9HlAXA1-11" value="&lt;span style=&quot;font-size: 18px;&quot;&gt;граница КЗ&lt;/span&gt;" style="text;html=1;strokeColor=none;fillColor=none;align=center;verticalAlign=middle;whiteSpace=wrap;rounded=0;" vertex="1" parent="1">
          <mxGeometry x="690" y="170" width="140" height="30" as="geometry" />
        </mxCell>
        <mxCell id="0JfsgBpQ2G4fl9HlAXA1-12" value="" style="endArrow=block;html=1;rounded=0;endFill=0;dashed=1;dashPattern=8 8;entryX=1;entryY=0.5;entryDx=0;entryDy=0;" edge="1" parent="1" target="0JfsgBpQ2G4fl9HlAXA1-9">
          <mxGeometry width="50" height="50" relative="1" as="geometry">
            <mxPoint x="640" y="270" as="sourcePoint" />
            <mxPoint x="662" y="60" as="targetPoint" />
            <Array as="points">
              <mxPoint x="640" y="115" />
            </Array>
          </mxGeometry>
        </mxCell>
        <mxCell id="0JfsgBpQ2G4fl9HlAXA1-13" value="&lt;span style=&quot;font-size: 18px;&quot;&gt;звук&lt;/span&gt;" style="text;html=1;strokeColor=none;fillColor=none;align=center;verticalAlign=middle;whiteSpace=wrap;rounded=0;" vertex="1" parent="1">
          <mxGeometry x="648" y="230" width="30" height="30" as="geometry" />
        </mxCell>
        <mxCell id="0JfsgBpQ2G4fl9HlAXA1-14" value="&lt;span style=&quot;font-size: 18px;&quot;&gt;шум на&amp;nbsp;улице&lt;br&gt;&lt;/span&gt;" style="text;html=1;strokeColor=none;fillColor=none;align=center;verticalAlign=middle;whiteSpace=wrap;rounded=0;" vertex="1" parent="1">
          <mxGeometry x="715" y="50" width="96" height="30" as="geometry" />
        </mxCell>
        <mxCell id="0JfsgBpQ2G4fl9HlAXA1-15" value="" style="curved=1;endArrow=block;html=1;rounded=0;endFill=0;" edge="1" parent="1">
          <mxGeometry width="50" height="50" relative="1" as="geometry">
            <mxPoint x="764" y="90" as="sourcePoint" />
            <mxPoint x="652" y="164" as="targetPoint" />
            <Array as="points">
              <mxPoint x="764" y="164" />
            </Array>
          </mxGeometry>
        </mxCell>
        <mxCell id="0JfsgBpQ2G4fl9HlAXA1-17" value="&lt;span style=&quot;font-size: 18px;&quot;&gt;нарушитель&lt;/span&gt;" style="text;html=1;strokeColor=none;fillColor=none;align=center;verticalAlign=middle;whiteSpace=wrap;rounded=0;" vertex="1" parent="1">
          <mxGeometry x="523.5" y="146" width="30" height="30" as="geometry" />
        </mxCell>
      </root>
    </mxGraphModel>
  </diagram>
</mxfile>
